# xmcd
#
# Track frame offsets:
#   150
#   4695
#   20748
#   35998
#   56767
#   72630
#   82780
#   99988
#   116289
#   134450
#   150476
#   169114
#   184550
#
# Disc length: 3261 seconds
#
# Revision: 0
# Processed by: cddbd v1.5.2PL0 Copyright (c) Steve Scherf et al.
# Submitted via: P Squared Myriad v2.6 2.6.36
#
DISCID=a40cbb0d
DTITLE=Seasick Steve - Dog House Music
DYEAR=2006
DGENRE=Blues
TTITLE0=Yellow Dog
TTITLE1=Things Go Up
TTITLE2=Cut My Wings
TTITLE3=Fallen Off a Rock
TTITLE4=Dog House Boogie
TTITLE5=Save Me
TTITLE6=Hobo Low
TTITLE7=Shirley Lou
TTITLE8=My Donny
TTITLE9=The Dead Song
TTITLE10=Last Po' Man
TTITLE11=Salem Blues
TTITLE12=I'm Gone
EXTD=
EXTT0=
EXTT1=
EXTT2=
EXTT3=
EXTT4=
EXTT5=
EXTT6=
EXTT7=
EXTT8=
EXTT9=
EXTT10=
EXTT11=
EXTT12=
PLAYORDER=
